<?xml version="1.0" encoding="iso-8859-1"?>
<!-- Generator: Adobe Illustrator 19.0.0, SVG Export Plug-In . SVG Version: 6.00 Build 0)  -->
<svg version="1.1" id="Layer_1" xmlns="http://www.w3.org/2000/svg" xmlns:xlink="http://www.w3.org/1999/xlink" x="0px" y="0px"
	 viewBox="0 0 511.998 511.998" style="enable-background:new 0 0 511.998 511.998;" xml:space="preserve">
<g>
	<g>
		<path d="M511.361,253.843c-0.274-0.925-6.915-22.946-25.345-49.278c-16.992-24.277-47.685-56.969-97.413-74.844l-10.17-3.656
			V248.4h-25.334V123.876h-15.198v124.523h-25.334V123.876h-15.198v124.523h-25.334V127.33h-15.198v121.069h-25.334V138.303h-15.198
			v110.096h-25.334v-88.782h-15.198v88.782h-25.334v-51.144h-15.198v51.144H114.82c-3.571-8.079-11.802-25.009-24.766-42.103
			c-23.873-31.48-52.386-48.119-82.454-48.119H0v195.646h7.599c30.068,0,58.581-16.639,82.454-48.12
			c12.965-17.095,21.196-34.027,24.767-42.105h20.417v51.143h15.198v-51.143h25.334v88.782h15.198v-88.782h25.334v110.096h15.198
			V263.599h25.334v121.069h15.198V263.599h25.334v124.523h15.198V263.599h25.334v124.523h15.198V263.599h25.334v34.96h15.198
			V148.004c32.158,13.647,58.9,35.409,79.602,64.805c13.957,19.82,20.75,37.257,22.833,43.191
			c-4.439,12.618-30.258,77.237-102.436,107.987v-45.163h-15.198v67.11l10.17-3.656c49.728-17.876,80.421-50.568,97.413-74.844
			c18.429-26.33,25.071-48.353,25.345-49.278l0.638-2.157L511.361,253.843z M15.198,338.19v-74.593h63.658v-15.198H15.198V173.81
			c50.515,5.824,80.317,68.3,86.343,82.194C95.525,269.922,65.813,332.384,15.198,338.19z"/>
	</g>
</g>
<g>
	<g>
		<polygon points="466.392,240.73 455.645,229.984 440.377,245.252 425.109,229.984 414.363,240.73 429.631,255.999 
			414.363,271.269 425.109,282.015 440.377,266.746 455.645,282.015 466.392,271.269 451.123,255.999 		"/>
	</g>
</g>
<g>
</g>
<g>
</g>
<g>
</g>
<g>
</g>
<g>
</g>
<g>
</g>
<g>
</g>
<g>
</g>
<g>
</g>
<g>
</g>
<g>
</g>
<g>
</g>
<g>
</g>
<g>
</g>
<g>
</g>
</svg>
