<?xml version="1.0" encoding="iso-8859-1"?>
<!-- Generator: Adobe Illustrator 17.1.0, SVG Export Plug-In . SVG Version: 6.00 Build 0)  -->
<!DOCTYPE svg PUBLIC "-//W3C//DTD SVG 1.1//EN" "http://www.w3.org/Graphics/SVG/1.1/DTD/svg11.dtd">
<svg version="1.1" id="Capa_1" xmlns="http://www.w3.org/2000/svg" xmlns:xlink="http://www.w3.org/1999/xlink" x="0px" y="0px"
	 viewBox="0 0 475.909 475.909" style="enable-background:new 0 0 475.909 475.909;" xml:space="preserve">
<path d="M420.195,173.058c-36.539-19.588-82.173-30.376-128.496-30.376s-91.957,10.788-128.497,30.376
	c-23.72,12.716-40.93,28.001-49.524,43.378c-9.056-11.745-25.141-24.639-48.521-38.936c-26.956-16.484-53.443-28.554-54.558-29.06
	c-2.321-1.053-5.019-0.855-7.162,0.525C1.295,150.346,0,152.721,0,155.27v165.368c0,2.549,1.295,4.924,3.438,6.305
	c1.23,0.792,2.643,1.195,4.063,1.195c1.053,0,2.11-0.222,3.099-0.67c1.114-0.506,27.602-12.575,54.558-29.06
	c23.38-14.298,39.466-27.191,48.521-38.936c8.594,15.377,25.804,30.662,49.524,43.378c36.54,19.588,82.174,30.376,128.497,30.376
	s91.957-10.788,128.496-30.376c34.886-18.702,55.713-42.962,55.713-64.896S455.081,191.76,420.195,173.058z M57.442,285.544
	c-16.04,9.816-32.24,18.17-42.442,23.196v-24.886h23.103c4.142,0,7.5-3.358,7.5-7.5s-3.358-7.5-7.5-7.5H15v-23.4h50.913
	c4.142,0,7.5-3.358,7.5-7.5s-3.358-7.5-7.5-7.5H15v-23.4h23.103c4.142,0,7.5-3.358,7.5-7.5s-3.358-7.5-7.5-7.5H15v-24.887
	c10.171,5.01,26.311,13.333,42.332,23.13c45.27,27.684,50.157,42.55,50.157,47.657C107.489,243.054,102.613,257.901,57.442,285.544z
	 M291.699,318.226c-96.549,0-169.21-48.696-169.21-80.272s72.661-80.272,169.21-80.272c16.496,0,32.293,1.423,47.151,3.938
	c-14.219,45.163-16.504,93.257-6.554,139.65c0.755,3.52,3.865,5.929,7.326,5.929c0.521,0,1.05-0.055,1.58-0.168
	c4.05-0.869,6.629-4.856,5.76-8.906c-9.521-44.389-7.187-90.426,6.699-133.57c64.041,14.532,107.248,49.052,107.248,73.4
	C460.909,269.531,388.248,318.226,291.699,318.226z M404.409,212.223c-14.188,0-25.731,11.543-25.731,25.731
	s11.543,25.731,25.731,25.731s25.731-11.543,25.731-25.731S418.597,212.223,404.409,212.223z M404.409,248.686
	c-5.917,0-10.731-4.814-10.731-10.731s4.814-10.731,10.731-10.731s10.731,4.814,10.731,10.731S410.326,248.686,404.409,248.686z
	 M283.385,237.954c0,4.142-3.358,7.5-7.5,7.5h-75.86c-4.142,0-7.5-3.358-7.5-7.5s3.358-7.5,7.5-7.5h75.86
	C280.027,230.454,283.385,233.812,283.385,237.954z"/>
<g>
</g>
<g>
</g>
<g>
</g>
<g>
</g>
<g>
</g>
<g>
</g>
<g>
</g>
<g>
</g>
<g>
</g>
<g>
</g>
<g>
</g>
<g>
</g>
<g>
</g>
<g>
</g>
<g>
</g>
</svg>
